<?xml version="1.0" encoding="UTF-8" standalone="no"?>
<svg
   aria-hidden="true"
   role="img"
   width="52.398289"
   height="53.60799"
   viewBox="0 0 19.649359 20.102997"
   style="color:#4a5565"
   version="1.1"
   id="svg1"
   sodipodi:docname="settings-cog-line.svg"
   inkscape:version="1.4.2 (f4327f4, 2025-05-13)"
   inkscape:export-filename="settings-cog-line-MISC.svg"
   inkscape:export-xdpi="29.40584"
   inkscape:export-ydpi="29.40584"
   xmlns:inkscape="http://www.inkscape.org/namespaces/inkscape"
   xmlns:sodipodi="http://sodipodi.sourceforge.net/DTD/sodipodi-0.dtd"
   xmlns="http://www.w3.org/2000/svg"
   xmlns:svg="http://www.w3.org/2000/svg">
  <sodipodi:namedview
     id="namedview1"
     pagecolor="#505050"
     bordercolor="#eeeeee"
     borderopacity="1"
     inkscape:showpageshadow="0"
     inkscape:pageopacity="0"
     inkscape:pagecheckerboard="0"
     inkscape:deskcolor="#505050"
     inkscape:zoom="5.5485787"
     inkscape:cx="9.10143"
     inkscape:cy="29.827459"
     inkscape:window-width="1920"
     inkscape:window-height="1051"
     inkscape:window-x="-9"
     inkscape:window-y="-9"
     inkscape:window-maximized="1"
     inkscape:current-layer="svg1">
    <inkscape:page
       x="0"
       y="0"
       width="19.649359"
       height="20.102997"
       id="page1"
       margin="0"
       bleed="0" />
  </sodipodi:namedview>
  <defs
     id="defs1" />
  <g
     fill="none"
     stroke="currentColor"
     stroke-width="2"
     id="g1"
     style="stroke:#c9c9c9;stroke-opacity:1"
     transform="matrix(0.48973831,-0.08270721,0.08270721,0.48973831,-1.8369917,0.18535309)">
    <path
       stroke-linecap="round"
       stroke-linejoin="round"
       d="M 14,21 H 10 L 9.449,18.52 A 7,7 0 0 1 7.63,17.47 l -2.424,0.763 -2,-3.464 1.872,-1.718 a 7,7 0 0 1 0,-2.1 L 3.206,9.232 5.206,5.768 7.63,6.531 A 7,7 0 0 1 9.45,5.48 L 10,3 h 4 l 0.551,2.48 a 7,7 0 0 1 1.819,1.05 l 2.424,-0.763 2,3.464 -1.872,1.718 a 7,7 0 0 1 0,2.1 l 1.872,1.718 -2,3.464 -2.424,-0.763 a 7,7 0 0 1 -1.819,1.052 z"
       id="path1"
       style="stroke:#c9c9c9;stroke-opacity:1" />
    <circle
       cx="12"
       cy="12"
       r="3"
       id="circle1"
       style="stroke:#c9c9c9;stroke-opacity:1" />
  </g>
  <g
     fill="none"
     stroke="currentColor"
     stroke-width="2"
     id="g2"
     style="display:inline;stroke:#c9c9c9;stroke-opacity:1"
     transform="matrix(0.68573031,0,0,0.68573031,4.7045703,5.0169292)">
    <path
       stroke-linecap="round"
       stroke-linejoin="round"
       d="M 14,21 H 10 L 9.449,18.52 A 7,7 0 0 1 7.63,17.47 l -2.424,0.763 -2,-3.464 1.872,-1.718 a 7,7 0 0 1 0,-2.1 L 3.206,9.232 5.206,5.768 7.63,6.531 A 7,7 0 0 1 9.45,5.48 L 10,3 h 4 l 0.551,2.48 a 7,7 0 0 1 1.819,1.05 l 2.424,-0.763 2,3.464 -1.872,1.718 a 7,7 0 0 1 0,2.1 l 1.872,1.718 -2,3.464 -2.424,-0.763 a 7,7 0 0 1 -1.819,1.052 z"
       id="path2"
       style="stroke:#c9c9c9;stroke-opacity:1" />
    <circle
       cx="12"
       cy="12"
       r="3"
       id="circle2"
       style="stroke:#c9c9c9;stroke-opacity:1" />
  </g>
</svg>
