<?xml version="1.0" encoding="UTF-8" standalone="no"?>
<svg
   aria-hidden="true"
   role="img"
   width="52.23452"
   height="53.333332"
   viewBox="0 0 19.587946 20"
   style="color:#4a5565"
   version="1.1"
   id="svg1"
   sodipodi:docname="settings-cog-line.svg"
   xmlns:inkscape="http://www.inkscape.org/namespaces/inkscape"
   xmlns:sodipodi="http://sodipodi.sourceforge.net/DTD/sodipodi-0.dtd"
   xmlns="http://www.w3.org/2000/svg"
   xmlns:svg="http://www.w3.org/2000/svg">
  <sodipodi:namedview
     id="namedview1"
     pagecolor="#505050"
     bordercolor="#eeeeee"
     borderopacity="1"
     inkscape:showpageshadow="0"
     inkscape:pageopacity="0"
     inkscape:pagecheckerboard="0"
     inkscape:deskcolor="#505050">
    <inkscape:page
       x="4.117445e-23"
       y="0"
       width="19.587946"
       height="20"
       id="page2"
       margin="0"
       bleed="0" />
  </sodipodi:namedview>
  <defs
     id="defs1" />
  <g
     fill="none"
     stroke="currentColor"
     stroke-width="2"
     id="g1"
     style="stroke:#ff5353;stroke-opacity:1"
     transform="translate(-2.2060267,-2)">
    <path
       stroke-linecap="round"
       stroke-linejoin="round"
       d="M 14,21 H 10 L 9.449,18.52 A 7,7 0 0 1 7.63,17.47 l -2.424,0.763 -2,-3.464 1.872,-1.718 a 7,7 0 0 1 0,-2.1 L 3.206,9.232 5.206,5.768 7.63,6.531 A 7,7 0 0 1 9.45,5.48 L 10,3 h 4 l 0.551,2.48 a 7,7 0 0 1 1.819,1.05 l 2.424,-0.763 2,3.464 -1.872,1.718 a 7,7 0 0 1 0,2.1 l 1.872,1.718 -2,3.464 -2.424,-0.763 a 7,7 0 0 1 -1.819,1.052 z"
       id="path1"
       style="stroke:#ff5353;stroke-opacity:1" />
    <circle
       cx="12"
       cy="12"
       r="3"
       id="circle1"
       style="stroke:#ff5353;stroke-opacity:1" />
  </g>
</svg>
